<svg width="24" height="24" viewBox="0 0 24 24" fill="none" xmlns="http://www.w3.org/2000/svg">
<g clip-path="url(#clip0_1762_182)">
<path d="M0.617188 0.865723H8.16612V15.6063C4.00023 15.6063 0.617188 12.2225 0.617188 8.05566V0.865723Z" fill="black"/>
<path d="M8.16406 23.1347V15.584C12.3915 15.584 15.8304 12.1442 15.8304 7.91583V0.865723H23.3793V7.91723C23.3793 16.3083 16.5546 23.1361 8.16406 23.1361V23.1347Z" fill="black"/>
<path d="M0.617188 0.865723H8.16612V15.6063C4.00023 15.6063 0.617188 12.2225 0.617188 8.05566V0.865723Z" fill="black"/>
<path d="M8.16406 23.1347V15.584C12.3915 15.584 15.8304 12.1442 15.8304 7.91583V0.865723H23.3793V7.91723C23.3793 16.3083 16.5546 23.1361 8.16406 23.1361V23.1347Z" fill="black"/>
</g>
<defs>
<clipPath id="clip0_1762_182">
<rect width="24" height="24" fill="white"/>
</clipPath>
</defs>
</svg>
