<svg width="178" height="43" viewBox="0 0 178 43" fill="none" xmlns="http://www.w3.org/2000/svg">
<g clip-path="url(#clip0_1881_40)">
<path d="M0.835938 6.02148H11.018V25.8991C5.39901 25.8991 0.835938 21.3361 0.835938 15.7171V6.02148Z" fill="black"/>
<path d="M11.0156 36.051V25.869C16.7176 25.869 21.3561 21.2305 21.3561 15.5285V6.02148H31.5381V15.5304C31.5381 26.8457 22.3328 36.0529 11.0156 36.0529V36.051Z" fill="black"/>
<path d="M0.835938 6.02148H11.018V25.8991C5.39901 25.8991 0.835938 21.3361 0.835938 15.7171V6.02148Z" fill="black"/>
<path d="M11.0156 36.051V25.869C16.7176 25.869 21.3561 21.2305 21.3561 15.5285V6.02148H31.5381V15.5304C31.5381 26.8457 22.3328 36.0529 11.0156 36.0529V36.051Z" fill="black"/>
<path d="M64.182 7.45613H68.3293V25.4764C68.3293 27.394 67.8789 29.093 66.9781 30.5735C66.0773 32.0451 64.8108 33.2045 63.1787 34.0518C61.5466 34.8902 59.6335 35.3093 57.4395 35.3093C55.2544 35.3093 53.3458 34.8902 51.7136 34.0518C50.0815 33.2045 48.8151 32.0451 47.9143 30.5735C47.0135 29.093 46.5631 27.394 46.5631 25.4764V7.45613H50.6969V25.142C50.6969 26.3817 50.9689 27.4832 51.513 28.4464C52.0659 29.4096 52.8463 30.1677 53.8541 30.7207C54.862 31.2647 56.0571 31.5367 57.4395 31.5367C58.8308 31.5367 60.0304 31.2647 61.0382 30.7207C62.0549 30.1677 62.8309 29.4096 63.366 28.4464C63.91 27.4832 64.182 26.3817 64.182 25.142V7.45613Z" fill="black"/>
<path d="M75.9556 11.0147V7.45613H97.1599V11.0147H88.6113V34.8545H84.4909V11.0147H75.9556Z" fill="black"/>
<path d="M107.834 34.8545H103.446L113.306 7.45613H118.082L127.942 34.8545H123.554L115.808 12.4328H115.594L107.834 34.8545ZM108.57 24.1253H122.804V27.6036H108.57V24.1253Z" fill="black"/>
<path d="M135.701 34.8545V7.45613H145.467C147.59 7.45613 149.351 7.8218 150.752 8.55314C152.161 9.28447 153.213 10.2967 153.909 11.59C154.604 12.8743 154.952 14.3592 154.952 16.0449C154.952 17.7216 154.6 19.1976 153.895 20.473C153.2 21.7395 152.147 22.725 150.738 23.4296C149.338 24.1342 147.577 24.4865 145.454 24.4865H138.056V20.9279H145.079C146.417 20.9279 147.505 20.7361 148.344 20.3526C149.191 19.9691 149.811 19.4117 150.203 18.6804C150.596 17.949 150.792 17.0705 150.792 16.0449C150.792 15.0103 150.591 14.114 150.19 13.3559C149.797 12.5978 149.177 12.0181 148.33 11.6167C147.492 11.2065 146.39 11.0013 145.026 11.0013H139.835V34.8545H135.701ZM149.226 22.4931L155.996 34.8545H151.287L144.651 22.4931H149.226Z" fill="black"/>
<path d="M176.016 7.45613V34.8545H171.882V7.45613H176.016Z" fill="black"/>
</g>
<defs>
<clipPath id="clip0_1881_40">
<rect width="178" height="42.0727" fill="white"/>
</clipPath>
</defs>
</svg>
